<?xml version="1.0" encoding="utf-8"?>
<!-- Generator: Adobe Illustrator 18.1.1, SVG Export Plug-In . SVG Version: 6.00 Build 0)  -->
<svg version="1.1" id="Layer_1" xmlns="http://www.w3.org/2000/svg" xmlns:xlink="http://www.w3.org/1999/xlink" x="0px" y="0px"
	 viewBox="0 73 1200 149" enable-background="new 0 73 1200 149" xml:space="preserve">
<g enable-background="new    ">
	<path fill="#FCCA2C" d="M166.9,120.2h-42.3c-16-0.5-18.3,3.9-7.1,13.2c20.1,17.7,30,34.8,29.6,51.5c-0.4,16.7-10.3,26.6-29.6,29.8
		H0v-40.1h74.2c17.6,0.5,19.8-4.4,6.7-14.7c-21.6-19.9-30.8-38.2-27.6-54.8c3.2-16.7,13.4-25,30.6-25h83V120.2z"/>
	<path fill="#FCCA2C" d="M266.1,80.1v40.1h-42.7v94.5h-43.8v-94.5h-42.7V80.1H266.1z"/>
	<path fill="#FCCA2C" d="M242.1,120.2V80.1h113l45,134.6h-50.9l-8.5-24.2h-40l-8.5,24.2H244l31-94.5L242.1,120.2L242.1,120.2z
		 M321.8,110l-19.3,53.3h37.1L321.8,110z"/>
	<path fill="#FCCA2C" d="M398.2,214.8V80.1h87.6c10.8,1,19.7,3.9,26.7,8.6c7,4.7,12.1,11.1,15.3,19c2.5,11.9,2.6,21.1,0.4,27.6
		c-2.2,6.5-6.2,11.9-11.7,16.2c-5.6,4.4-13.6,7.8-24.1,10.3l10.1,12.9h72v40.1h-84.8L447,170.3v44.5L398.2,214.8L398.2,214.8z
		 M446.9,113.7v24.8h33.9c1.8,0,3.8-0.7,5.9-2s3.2-4.7,3.4-10.1c-0.3-5.2-1.6-8.6-3.8-10.2c-2.2-1.6-4.1-2.5-5.5-2.5
		C480.8,113.7,446.9,113.7,446.9,113.7z"/>
	<path fill="#FCCA2C" d="M719.5,157.7l-14.2,57.1h-43.8l-31-94.5h-28V80.1h61.7l18.5,58.2l16-58.2H739l18.7,58.2l12.5-58.2h43.4
		l-33.3,134.6h-43.8L719.5,157.7z"/>
	<path fill="#FCCA2C" d="M784.2,120.2V80.1h113l45,134.6h-50.9l-8.5-24.2h-40l-8.5,24.2H786l31-94.5L784.2,120.2L784.2,120.2z
		 M863.9,110l-19.3,53.3h37.1L863.9,110z"/>
	<path fill="#FCCA2C" d="M940.4,214.8V80.1h87.6c10.8,1,19.7,3.9,26.7,8.6s12.1,11.1,15.3,19c2.5,11.9,2.6,21.1,0.4,27.6
		s-6.2,11.9-11.7,16.2c-5.6,4.4-13.6,7.8-24.1,10.3l10.1,12.9h72v40.1h-84.8L989,170.3v44.5H940.4z M989,113.7v24.8h33.9
		c1.8,0,3.8-0.7,5.9-2s3.2-4.7,3.4-10.1c-0.3-5.2-1.6-8.6-3.8-10.2c-2.2-1.6-4.1-2.5-5.5-2.5C1022.9,113.7,989,113.7,989,113.7z"/>
	<path fill="#FCCA2C" d="M1200.3,120.2H1158c-16-0.5-18.3,3.9-7.1,13.2c20.1,17.7,30,34.8,29.6,51.5s-10.3,26.6-29.6,29.8h-117.5
		v-40.1h74.2c17.6,0.5,19.8-4.4,6.7-14.7c-21.6-19.9-30.8-38.2-27.6-54.8c3.2-16.7,13.4-25,30.6-25h83L1200.3,120.2L1200.3,120.2z"
		/>
</g>
</svg>
